<?xml version="1.0" encoding="UTF-8"?>
<svg version="1.1" xmlns="http://www.w3.org/2000/svg" width="843" height="289">
<path d="M0 0 C278.19 0 556.38 0 843 0 C843 95.37 843 190.74 843 289 C564.81 289 286.62 289 0 289 C0 193.63 0 98.26 0 0 Z " fill="#FDFDFD" transform="translate(0,0)"/>
<path d="M0 0 C1.56970915 -0.00333904 3.1394145 -0.00931442 4.70910496 -0.01767308 C8.99554147 -0.03294149 13.28108569 -0.01106195 17.56742609 0.01720345 C22.2046923 0.04116887 26.84189694 0.03024528 31.47920227 0.02371216 C40.57078286 0.01630676 49.66201531 0.04064734 58.75352187 0.0753131 C69.41338443 0.11453926 80.07318924 0.12022502 90.73311364 0.1242932 C109.84094498 0.13255122 128.9486239 0.16829599 148.05638123 0.22068787 C166.42617368 0.27100875 184.79590116 0.30674362 203.16575623 0.32322693 C204.28811358 0.32423787 205.41047093 0.3252488 206.56683911 0.32629038 C211.08404892 0.33031433 215.60125879 0.33427665 220.11846874 0.33814684 C239.94896191 0.35543865 259.7794431 0.3835704 279.60991892 0.41468605 C281.71677626 0.41798908 283.82363366 0.42125269 285.93049112 0.42447582 C328.81430648 0.49033414 371.69673378 0.59795594 414.57764201 1.13579087 C416.93142524 1.16487313 419.28522237 1.19232655 421.63902962 1.21938622 C528.80656756 2.47386456 528.80656756 2.47386456 557.21775818 27.72825623 C557.87904724 28.27481873 558.5403363 28.82138123 559.22166443 29.38450623 C570.44895313 39.44006651 575.62338533 55.65202965 576.6157074 70.40159607 C576.79886789 74.49016558 576.82579042 78.57194727 576.79417419 82.66404724 C576.78028234 85.16141299 576.81457465 87.65503004 576.8525238 90.15208435 C576.93939562 108.48034648 572.27098335 126.02152784 559.40135193 139.66966248 C519.68116128 177.11606761 440.79951908 169.05595075 390.74896336 168.9310441 C384.76336717 168.91831659 378.77776767 168.91734928 372.79216003 168.91499329 C361.52043741 168.90884185 350.2487548 168.89251937 338.97704959 168.87229431 C326.11794025 168.84973478 313.25882874 168.8388921 300.39970446 168.82890344 C274.00569964 168.80814545 247.61173288 168.77268103 221.21775818 168.72825623 C221.21775818 179.61825623 221.21775818 190.50825623 221.21775818 201.72825623 C194.81775818 201.72825623 168.41775818 201.72825623 141.21775818 201.72825623 C141.21775818 153.54825623 141.21775818 105.36825623 141.21775818 55.72825623 C129.83275818 55.77466248 118.44775818 55.82106873 106.71775818 55.86888123 C99.50811914 55.88931766 92.29850107 55.90873891 85.08885193 55.92356873 C73.64362923 55.94729995 62.19852436 55.97519279 50.75340271 56.03001404 C42.41783623 56.06992168 34.08236537 56.09569851 25.74670601 56.1046102 C21.33426703 56.10981831 16.92210156 56.12203203 12.50975037 56.15117645 C8.35321515 56.17840769 4.19706509 56.18668574 0.04044914 56.18068695 C-1.48169106 56.18178375 -3.00384468 56.18969184 -4.52590752 56.20507812 C-15.04252418 56.30613822 -22.88995218 55.40724074 -30.78224182 47.72825623 C-36.20874555 40.51920912 -38.96478461 32.78949034 -37.78224182 23.72825623 C-35.67483327 15.90929154 -32.17269292 9.64850997 -25.37028939 5.12397617 C-16.91166669 0.46542113 -9.41737737 -0.11359971 0 0 Z " fill="#010101" transform="translate(265.78224182128906,-0.7282562255859375)"/>
<path d="M0 0 C0.88257477 -0.00428513 1.76514954 -0.00857025 2.67446899 -0.01298523 C4.53524928 -0.01870903 6.39605193 -0.01924322 8.25683594 -0.01489258 C11.08567982 -0.01173647 13.91347295 -0.03520262 16.7421875 -0.06054688 C18.55729036 -0.06282064 20.372396 -0.06352301 22.1875 -0.0625 C23.02421234 -0.07170975 23.86092468 -0.08091949 24.72299194 -0.09040833 C40.89304764 0.03535313 55.19417179 12.45406143 68.28125 20.82421875 C72.70628146 23.65348757 77.14445453 26.4598625 81.6015625 29.23828125 C82.52859985 29.81630493 82.52859985 29.81630493 83.47436523 30.40600586 C84.80194078 31.23330171 86.1296656 32.06035808 87.45751953 32.88720703 C100.16245153 40.80215821 112.85497531 48.73637293 125.50317383 56.74169922 C132.91712533 61.43019747 140.3584389 66.07456414 147.80004883 70.71899414 C154.97720449 75.20075346 162.13489279 79.71234357 169.28393555 84.23876953 C173.51708792 86.91572928 177.76522879 89.56399398 182.0390625 92.17578125 C187.81312428 95.71047306 193.52064262 99.3447777 199.2265625 102.98828125 C207.45903845 108.24389165 215.73461345 113.42291905 224.04760742 118.55004883 C229.73266546 122.05898264 235.39509726 125.60115056 241.0390625 129.17578125 C248.1493319 133.67870291 255.27585286 138.15477483 262.4140625 142.61328125 C263.41953125 143.24129639 264.425 143.86931152 265.4609375 144.51635742 C268.54926451 146.44484279 271.6378614 148.3728951 274.7265625 150.30078125 C289.08434127 159.26252985 303.42500171 168.24958186 317.7265625 177.30078125 C320.14986411 178.83369937 322.57339124 180.36625833 324.99731445 181.89819336 C326.58999093 182.90489875 328.18228552 183.91220859 329.77416992 184.92016602 C333.64993868 187.37128839 337.53495393 189.80506348 341.44140625 192.20703125 C342.18495361 192.66577637 342.92850098 193.12452148 343.69458008 193.59716797 C345.09934494 194.46244588 346.50662112 195.32366412 347.91674805 196.18017578 C352.61530038 199.07825702 352.61530038 199.07825702 353.7265625 201.30078125 C336.03682038 201.4645827 318.34727613 201.58787858 300.65693855 201.66346645 C292.44225784 201.69950226 284.22804938 201.7485978 276.01367188 201.82885742 C268.85076534 201.89880992 261.68820095 201.94383162 254.52496231 201.95940071 C250.7347786 201.96849646 246.94557336 201.98974491 243.1557045 202.04089165 C239.58165438 202.08873081 236.00897697 202.10299833 232.43463707 202.09253502 C230.51123324 202.09535172 228.58797587 202.13285292 226.66496277 202.17172241 C217.94646338 202.0998012 213.34715388 199.81420594 206.7265625 194.30078125 C205.36217113 193.41018101 203.98429057 192.53939127 202.5859375 191.703125 C201.91957275 191.3016626 201.25320801 190.9002002 200.56665039 190.48657227 C199.87692139 190.07463623 199.18719238 189.6627002 198.4765625 189.23828125 C188.68164139 183.31923574 179.04272304 177.16547326 169.39892578 171.00439453 C165.3498869 168.42315999 161.28870998 165.86131835 157.2265625 163.30078125 C150.38234118 158.98445615 143.55125286 154.64791802 136.7265625 150.30078125 C124.85072753 142.73846558 112.97213156 135.18046017 101.015625 127.74609375 C89.92435062 120.84648384 78.8929902 113.87725712 68.00292969 106.6628418 C60.36181476 101.62729872 52.60093963 97.02540753 44.7265625 92.30078125 C44.7265625 128.27078125 44.7265625 164.24078125 44.7265625 201.30078125 C19.6465625 201.30078125 -5.4334375 201.30078125 -31.2734375 201.30078125 C-31.40904886 178.299703 -31.51950365 155.29895005 -31.58431053 132.29757309 C-31.61520565 121.61685592 -31.65730299 110.93640537 -31.72607422 100.25585938 C-31.78600935 90.94314077 -31.82461821 81.63061533 -31.83796847 72.31770921 C-31.84576837 67.3897015 -31.86400878 62.46224626 -31.90781784 57.5344162 C-31.94878221 52.88858345 -31.9610588 48.24352658 -31.95208359 43.59753036 C-31.95372364 41.89966733 -31.96551631 40.20177623 -31.98867035 38.50407028 C-32.14073382 26.77113677 -30.60445184 17.54196877 -22.7109375 8.30078125 C-21.9065625 7.64078125 -21.1021875 6.98078125 -20.2734375 6.30078125 C-19.066875 5.21796875 -19.066875 5.21796875 -17.8359375 4.11328125 C-12.21034719 0.13420517 -6.63776548 -0.00719552 0 0 Z " fill="#000000" transform="translate(32.2734375,-0.30078125)"/>
<path d="M0 0 C28.87782975 -0.02261817 57.75565228 -0.04102059 86.63348866 -0.05181217 C89.30880039 -0.05283193 91.98411211 -0.05387326 94.65942383 -0.05493164 C95.32433764 -0.05519395 95.98925145 -0.05545626 96.67431416 -0.05572652 C106.7373872 -0.05979417 116.80045529 -0.0668293 126.86352539 -0.07543945 C138.55866252 -0.08544122 150.25379536 -0.09186645 161.94893664 -0.09408849 C168.1350439 -0.09538631 174.3211389 -0.09841287 180.5072422 -0.10573006 C186.34384289 -0.11257714 192.1804264 -0.11459949 198.01703072 -0.11310768 C200.14568933 -0.11338014 202.27434859 -0.11533326 204.40300369 -0.11920547 C221.15663919 -0.14815652 237.93752085 0.01721302 254.5625 2.3125 C255.44228516 2.41755859 256.32207031 2.52261719 257.22851562 2.63085938 C264.00842383 3.54517271 271.18236618 5.07706487 276.72094727 9.31762695 C280.36513213 14.11092298 279.22132272 21.71996779 279.25 27.4375 C279.2809375 28.97374023 279.2809375 28.97374023 279.3125 30.54101562 C279.34101109 36.04722016 279.3405484 40.36367834 276 45 C274.0546875 46.390625 274.0546875 46.390625 271.875 47.25 C271.17117188 47.54390625 270.46734375 47.8378125 269.7421875 48.140625 C262.27332532 50.48129406 254.62225574 51.5850425 246.875 52.5625 C245.96363281 52.68818359 245.05226563 52.81386719 244.11328125 52.94335938 C225.91766184 55.25718315 207.42390061 55.14941925 189.11157227 55.11352539 C187.03924053 55.11324226 184.9669087 55.1134037 182.89457703 55.1139679 C177.35065221 55.11425096 171.80674971 55.10843478 166.26283002 55.10139394 C160.43864386 55.09507754 154.614457 55.09455012 148.79026794 55.09336853 C137.79791281 55.09027937 126.80556781 55.08209905 115.8132171 55.07201904 C103.28329834 55.06078225 90.75337906 55.05532852 78.2234565 55.05032361 C52.48229745 55.039914 26.74115226 55.02159911 1 55 C0.67 36.85 0.34 18.7 0 0 Z " fill="#FEFEFE" transform="translate(486,57)"/>
<path d="M0 0 C66 0 132 0 200 0 C200 8.25 200 16.5 200 25 C180.29188799 25.34965485 160.58467332 25.61613221 140.87408161 25.77718258 C131.71859909 25.854004 122.56509768 25.95840835 113.41088867 26.1315918 C105.41680178 26.28275332 97.42415106 26.37825291 89.4286744 26.41132742 C85.207816 26.43061575 80.99105976 26.47474465 76.77153969 26.58595085 C54.09588272 27.16018947 38.27797435 23.96718837 18.92201805 11.82306099 C15.43084623 9.64490225 11.85696038 7.6562925 8.24539661 5.68669033 C5.46957485 4.17031095 2.73468059 2.58912935 0 1 C0 0.67 0 0.34 0 0 Z " fill="#080808" transform="translate(287,219)"/>
<path d="M0 0 C39.6 0 79.2 0 120 0 C118.56238629 10.06329598 116.48766947 16.63480838 108.25 23.1875 C101.13156934 27.15739402 94.44310985 28.4667982 86.35546875 28.46875 C85.46442947 28.47636353 84.5733902 28.48397705 83.65534973 28.49182129 C81.78222432 28.50255688 79.90903938 28.50550225 78.03588867 28.50097656 C75.20452621 28.50000584 72.37589335 28.54166899 69.54492188 28.5859375 C59.31369953 28.65491026 51.13757928 28.09076946 42 23 C41.23502197 22.6189209 40.47004395 22.2378418 39.68188477 21.84521484 C37.49167736 20.75168998 35.33936418 19.60445665 33.1875 18.4375 C31.57062724 17.57362941 29.95342318 16.71037869 28.3359375 15.84765625 C27.48612305 15.39277832 26.63630859 14.93790039 25.76074219 14.46923828 C20.62870171 11.73801971 15.46898369 9.05969493 10.3125 6.375 C8.32940391 5.34119028 6.34632898 4.30733998 4.36328125 3.2734375 C2.90888029 2.51557487 1.45446394 1.75774177 0 1 C0 0.67 0 0.34 0 0 Z " fill="#060606" transform="translate(367,261)"/>
<path d="M0 0 C25.74 0 51.48 0 78 0 C75.86614079 10.66929605 74.1871197 17.21740231 65.453125 23.7109375 C57.50591456 27.88701942 50.18602203 28.41410463 41.30859375 28.29296875 C40.12274185 28.28872391 38.93688995 28.28447906 37.71510315 28.28010559 C33.95566374 28.26341433 30.19677533 28.22577888 26.4375 28.1875 C23.87696091 28.17244086 21.31641335 28.15875462 18.75585938 28.14648438 C12.50352708 28.11610375 6.25237481 28.05736124 0 28 C0 18.76 0 9.52 0 0 Z " fill="#050505" transform="translate(0,261)"/>
<path d="M0 0 C25.74 0 51.48 0 78 0 C78 7.92 78 15.84 78 24 C76.31496301 25.68503699 74.23740116 25.11965983 71.98905945 25.12442017 C71.27264786 25.12082489 70.55623627 25.11722961 69.81811523 25.11352539 C68.6913588 25.11374443 68.6913588 25.11374443 67.5418396 25.1139679 C65.04739541 25.11326863 62.55302497 25.10547564 60.05859375 25.09765625 C58.33366436 25.09579212 56.60873443 25.09436819 54.88380432 25.09336853 C50.33487497 25.08954297 45.78597733 25.07971238 41.23706055 25.06866455 C36.59879994 25.05845124 31.96053423 25.05387108 27.32226562 25.04882812 C18.21482754 25.03809013 9.10742137 25.02049304 0 25 C0 16.75 0 8.5 0 0 Z " fill="#0A0A0A" transform="translate(0,219)"/>
<path d="M0 0 C7.59 0 15.18 0 23 0 C20.85134432 1.43243712 18.73190841 2.77523704 16.5 4.0625 C15.9121875 4.40410156 15.324375 4.74570313 14.71875 5.09765625 C13 6 13 6 10 7 C8.9361371 8.79337819 8.9361371 8.79337819 8 11 C7.51138929 11.78978367 7.02277859 12.57956734 6.5193615 13.39328384 C1.28386001 22.41514849 1.1476831 30.61372845 1.22705078 40.70214844 C1.2188653 42.45760449 1.20805448 44.21304995 1.19483948 45.96847534 C1.16657077 50.69924112 1.17469993 55.42930591 1.18970728 60.16010571 C1.19912793 65.11692123 1.17459927 70.07357035 1.15377808 75.03033447 C1.11951957 84.40106452 1.1154882 93.77155025 1.12250316 103.14233041 C1.12900868 113.81720727 1.10153306 124.49191376 1.07130075 135.16673994 C1.00990768 157.11123056 0.9953555 179.05541714 1 201 C26.08 201 51.16 201 77 201 C77 201.33 77 201.66 77 202 C51.59 202 26.18 202 0 202 C0 135.34 0 68.68 0 0 Z " fill="#545454" transform="translate(0,0)"/>
<path d="M0 0 C7.59 0 15.18 0 23 0 C20.85134432 1.43243712 18.73190841 2.77523704 16.5 4.0625 C15.9121875 4.40410156 15.324375 4.74570313 14.71875 5.09765625 C13 6 13 6 10 7 C8.92145609 8.75292689 8.92145609 8.75292689 8 11 C7.27103516 12.40572266 7.27103516 12.40572266 6.52734375 13.83984375 C6.00269531 14.86207031 5.47804688 15.88429688 4.9375 16.9375 C4.41027344 17.95714844 3.88304687 18.97679688 3.33984375 20.02734375 C2.11669719 22.74108875 1.4370263 25.07030517 1 28 C0.67 28 0.34 28 0 28 C0 18.76 0 9.52 0 0 Z " fill="#F7F7F7" transform="translate(0,0)"/>
<path d="M0 0 C1.7405306 2.6107959 2.87230567 4.96108738 4.125 7.8125 C7.67375415 14.93076125 12.5655465 18.33840187 20 20.875 C21.32885425 21.26557541 22.66078095 21.64659497 24 22 C24 22.33 24 22.66 24 23 C16.08 23 8.16 23 0 23 C0 15.41 0 7.82 0 0 Z " fill="#F7F7F7" transform="translate(0,266)"/>
</svg>
