<?xml version="1.0" encoding="utf-8"?>
<!-- Generator: Adobe Illustrator 28.0.0, SVG Export Plug-In . SVG Version: 6.00 Build 0)  -->
<svg width="102.2479" height="35" version="1.1" id="图层_1" xmlns="http://www.w3.org/2000/svg" xmlns:xlink="http://www.w3.org/1999/xlink" x="0px" y="0px"
	 viewBox="0 0 150 51" style="enable-background:new 0 0 150 51;" xml:space="preserve">
<style type="text/css">
	.st0{fill:#FFFFFF;}
</style>
<g>
	<path class="st0" d="M15.74,16.46l30.19,19.1h23.65L14.99,1.3c-0.67-0.42-1.43-0.65-2.18-0.65H7.13c-2.63,0-4.77,2.61-4.77,5.83
		v29.07h13.38V16.46z"/>
	<rect x="2.36" y="38.68" class="st0" width="5.84" height="2"/>
	<path class="st0" d="M74.06,50.12c0.67,0.35,1.43,0.54,2.2,0.54h5.67c2.6,0,4.72-2.1,4.76-4.69H66.04L74.06,50.12z"/>
	<path class="st0" d="M7.13,50.66h3.84c2.6,0,4.72-2.1,4.76-4.69H2.37C2.41,48.56,4.53,50.66,7.13,50.66z"/>
	<polygon class="st0" points="60,42.84 86.7,42.84 86.7,38.68 51.97,38.68 	"/>
	<path class="st0" d="M147.15,8.17c-0.97-2.06-2.75-3.68-5.3-4.81c-2.22-0.98-5.28-1.65-9.34-2.05c-3.81-0.37-8.86-0.56-15.01-0.56
		h-3.73c-0.26-0.04-0.51-0.08-0.78-0.08H46.7c-2.63,0-4.77,2.14-4.77,4.77s2.14,4.77,4.77,4.77h26.22v25.34H86.7v-5.82h30.56
		c6.16,0,11.23-0.21,15.06-0.62c4.07-0.44,7.14-1.14,9.41-2.14c2.59-1.15,4.4-2.76,5.39-4.79c0.87-1.8,1.31-3.97,1.31-6.43v-0.99
		C148.43,12.19,148,9.98,147.15,8.17z M135.05,15.74c0,1.26-0.23,1.95-0.42,2.32c-0.1,0.19-0.52,0.52-1.36,0.81
		c-0.84,0.29-2.53,0.68-5.82,0.9c-2.82,0.19-6.67,0.28-11.45,0.28H86.7v-8.28c0-0.4-0.07-0.79-0.16-1.16v-0.16H116
		c4.78,0,8.65,0.08,11.48,0.23c3.29,0.18,4.99,0.55,5.83,0.82c0.82,0.27,1.22,0.58,1.32,0.77c0.19,0.37,0.42,1.1,0.42,2.49V15.74z"
		/>
</g>
</svg>
