<?xml version="1.0" encoding="UTF-8"?>
<svg id="_图层_1" data-name="图层 1" xmlns="http://www.w3.org/2000/svg" viewBox="0 0 404.24 138.37">
  <defs>
    <style>
      .cls-1 {
        stroke-width: 0px;
      }
    </style>
  </defs>
  <path class="cls-1" d="m37.03,43.73l83.54,52.85h65.46L34.94,1.79c-1.86-1.17-3.95-1.79-6.04-1.79h-15.69C5.92,0,0,7.24,0,16.13v80.45h37.03v-52.85Z"/>
  <rect class="cls-1" y="105.24" width="37.03" height="11.51"/>
  <path class="cls-1" d="m198.43,136.89c1.87.97,3.97,1.48,6.08,1.48h15.68c7.2,0,13.05-5.8,13.18-12.97h-57.13l22.2,11.49Z"/>
  <path class="cls-1" d="m13.2,138.37h10.63c7.2,0,13.05-5.8,13.18-12.97H.02c.12,7.17,5.98,12.97,13.18,12.97Z"/>
  <polygon class="cls-1" points="159.52 116.74 233.4 116.74 233.4 105.24 137.29 105.24 159.52 116.74"/>
  <path class="cls-1" d="m400.7,20.8c-2.68-5.71-7.62-10.19-14.66-13.31-6.15-2.72-14.6-4.57-25.83-5.67-10.53-1.02-24.51-1.54-41.54-1.54h-10.31c-.71-.12-1.43-.22-2.17-.22H122.7c-7.28,0-13.2,5.92-13.2,13.2s5.92,13.2,13.2,13.2h72.57v70.13h38.13v-16.11h84.58c17.05,0,31.07-.58,41.68-1.72,11.26-1.22,19.77-3.16,26.04-5.93,7.16-3.17,12.17-7.63,14.91-13.27,2.41-4.99,3.63-10.98,3.63-17.8v-2.74c0-7.07-1.19-13.19-3.54-18.2Zm-33.49,20.94c0,3.48-.63,5.41-1.16,6.42-.28.53-1.43,1.43-3.77,2.24-2.33.8-7.01,1.89-16.11,2.48-7.8.51-18.46.77-31.67.77h-81.1v-22.9c0-1.12-.18-2.18-.44-3.22v-.45h81.54c13.24,0,23.93.22,31.76.64,9.11.5,13.8,1.51,16.13,2.27,2.27.75,3.39,1.6,3.65,2.12.53,1.02,1.17,3.05,1.17,6.88v2.74Z"/>
</svg>
