<?xml version="1.0" encoding="utf-8"?>
<!-- Generator: Adobe Illustrator 28.0.0, SVG Export Plug-In . SVG Version: 6.00 Build 0)  -->
<svg width="60.5" height="25" version="1.1" id="图层_1" xmlns="http://www.w3.org/2000/svg" xmlns:xlink="http://www.w3.org/1999/xlink" x="0px" y="0px"
	 viewBox="0 0 60.5 25" style="enable-background:new 0 0 60.5 25;" xml:space="preserve">
<style type="text/css">
	.st0{fill:#FFFFFF;}
</style>
<g>
	<g>
		<path class="st0" d="M5.79,9.1l12.08,7.64h9.46L5.49,3.03C5.22,2.87,4.91,2.78,4.61,2.78H2.34c-1.05,0-1.91,1.05-1.91,2.33v11.63
			h5.35V9.1z"/>
	</g>
	<g>
		<rect x="0.44" y="17.99" class="st0" width="5.35" height="1.66"/>
	</g>
	<g>
		<path class="st0" d="M29.12,22.56c0.27,0.14,0.57,0.21,0.88,0.21h2.27c1.04,0,1.89-0.84,1.9-1.88h-8.26L29.12,22.56z"/>
	</g>
	<g>
		<path class="st0" d="M2.34,22.78h1.54c1.04,0,1.89-0.84,1.9-1.88H0.44C0.46,21.94,1.3,22.78,2.34,22.78z"/>
	</g>
	<g>
		<polygon class="st0" points="23.49,19.65 34.17,19.65 34.17,17.99 20.28,17.99 		"/>
	</g>
	<g>
		<path class="st0" d="M58.35,5.78c-0.39-0.83-1.1-1.47-2.12-1.92c-0.89-0.39-2.11-0.66-3.73-0.82c-1.52-0.15-3.54-0.22-6-0.22H45
			c-0.1-0.02-0.21-0.03-0.31-0.03H18.17c-1.05,0-1.91,0.86-1.91,1.91s0.86,1.91,1.91,1.91h10.49v10.14h5.51v-2.33H46.4
			c2.46,0,4.49-0.08,6.02-0.25c1.63-0.18,2.86-0.46,3.76-0.86c1.03-0.46,1.76-1.1,2.15-1.92c0.35-0.72,0.53-1.59,0.53-2.57v-0.4
			C58.86,7.39,58.69,6.51,58.35,5.78z M53.51,8.81c0,0.5-0.09,0.78-0.17,0.93c-0.04,0.08-0.21,0.21-0.55,0.32
			c-0.34,0.12-1.01,0.27-2.33,0.36c-1.13,0.07-2.67,0.11-4.58,0.11H34.17V7.22c0-0.16-0.03-0.32-0.06-0.46V6.69h11.79
			c1.91,0,3.46,0.03,4.59,0.09C51.8,6.85,52.48,7,52.82,7.11c0.33,0.11,0.49,0.23,0.53,0.31c0.08,0.15,0.17,0.44,0.17,0.99V8.81z"/>
	</g>
</g>
</svg>
