<?xml version="1.0" encoding="UTF-8"?>
<svg width="292.1368" height="100" id="_图层_1" data-name="图层 1" xmlns="http://www.w3.org/2000/svg" viewBox="0 0 310 100">
  <defs>
    <style>
      .cls-1, .cls-2 {
        stroke-width: 0px;
      }

      .cls-2 {
        fill: none;
      }
    </style>
  </defs>
  <path class="cls-2" d="m442.57,138.5c.1-.3.2-.6.2-.9,0-1-.8-1.9-1.9-1.9-.7,0-1.3.4-1.6.9-.1.3-.2.6-.2.9,0,1,.8,1.9,1.9,1.9.7.1,1.3-.3,1.6-.9Z"/>
  <g>
    <path class="cls-1" d="m26.76,31.6l60.38,38.2h47.3L25.25,1.29c-1.35-.85-2.86-1.29-4.37-1.29h-11.34C4.28,0,0,5.23,0,11.66v58.14h26.76V31.6Z"/>
    <rect class="cls-1" y="0" width="10" height="10"/>
    <path class="cls-1" d="m143.41,98.93c1.35.7,2.87,1.07,4.39,1.07h11.33c5.21,0,9.43-4.19,9.52-9.38h-41.29l16.04,8.3Z"/>
    <path class="cls-1" d="m9.54,100h7.68c5.2,0,9.43-4.19,9.52-9.38H.02c.09,5.18,4.32,9.38,9.53,9.38Z"/>
    <polygon class="cls-1" points="115.28 84.37 168.67 84.37 168.67 76.05 99.22 76.05 115.28 84.37"/>
    <path class="cls-1" d="m289.58,15.03c-1.94-4.13-5.5-7.37-10.6-9.62-4.45-1.96-10.55-3.3-18.67-4.1-7.61-.74-17.71-1.12-30.02-1.12h-7.45c-.51-.09-1.03-.16-1.57-.16H88.68c-5.26,0-9.54,4.28-9.54,9.54s4.28,9.54,9.54,9.54h52.44v50.68h27.56v-11.64h61.13c12.32,0,22.45-.42,30.12-1.25,8.13-.88,14.29-2.29,18.82-4.29,5.17-2.29,8.8-5.51,10.77-9.59,1.74-3.6,2.63-7.93,2.63-12.87v-1.98c0-5.11-.86-9.53-2.56-13.15Zm-24.2,15.14c0,2.51-.45,3.91-.84,4.64-.2.38-1.03,1.04-2.73,1.62-1.68.58-5.07,1.36-11.64,1.79-5.63.37-13.34.56-22.89.56h-58.61v-16.55c0-.81-.13-1.58-.32-2.32v-.33h58.93c9.57,0,17.29.16,22.96.46,6.58.36,9.97,1.09,11.66,1.64,1.64.54,2.45,1.16,2.64,1.53.38.74.84,2.21.84,4.97v1.98Z"/>
  </g>
</svg>
