<?xml version="1.0" encoding="utf-8"?>
<!-- Generator: Adobe Illustrator 28.0.0, SVG Export Plug-In . SVG Version: 6.00 Build 0)  -->
<svg version="1.1" id="图层_1" xmlns="http://www.w3.org/2000/svg" xmlns:xlink="http://www.w3.org/1999/xlink" x="0px" y="0px"
	 viewBox="0 0 500 500" style="enable-background:new 0 0 500 500;" xml:space="preserve">
<style type="text/css">
	.st0{fill:#FFFFFF;stroke:#000000;stroke-miterlimit:10;}
</style>
<g>
	<path class="st0" d="M190.35,240.8l30.19,19.1h23.65l-54.6-34.25c-0.67-0.42-1.43-0.65-2.18-0.65h-5.67
		c-2.63,0-4.77,2.61-4.77,5.83v29.07h13.38V240.8z"/>
	<rect x="176.97" y="263.03" class="st0" width="13.38" height="4.16"/>
	<path class="st0" d="M248.67,274.46c0.67,0.35,1.43,0.54,2.2,0.54h5.67c2.6,0,4.72-2.1,4.76-4.69h-20.65L248.67,274.46z"/>
	<path class="st0" d="M181.74,275h3.84c2.6,0,4.72-2.1,4.76-4.69h-13.36C177.02,272.9,179.13,275,181.74,275z"/>
	<polygon class="st0" points="234.61,267.18 261.3,267.18 261.3,263.03 226.57,263.03 	"/>
	<path class="st0" d="M321.76,232.51c-0.97-2.06-2.75-3.68-5.3-4.81c-2.22-0.98-5.28-1.65-9.34-2.05
		c-3.81-0.37-8.86-0.56-15.01-0.56h-3.73c-0.26-0.04-0.51-0.08-0.78-0.08h-66.3c-2.63,0-4.77,2.14-4.77,4.77s2.14,4.77,4.77,4.77
		h26.22v25.34h13.78v-5.82h30.56c6.16,0,11.23-0.21,15.06-0.62c4.07-0.44,7.14-1.14,9.41-2.14c2.59-1.15,4.4-2.76,5.39-4.79
		c0.87-1.8,1.31-3.97,1.31-6.43v-0.99C323.03,236.54,322.6,234.33,321.76,232.51z M309.66,240.08c0,1.26-0.23,1.95-0.42,2.32
		c-0.1,0.19-0.52,0.52-1.36,0.81c-0.84,0.29-2.53,0.68-5.82,0.9c-2.82,0.19-6.67,0.28-11.45,0.28h-29.3v-8.28
		c0-0.4-0.07-0.79-0.16-1.16v-0.16h29.46c4.78,0,8.65,0.08,11.48,0.23c3.29,0.18,4.99,0.55,5.83,0.82c0.82,0.27,1.22,0.58,1.32,0.77
		c0.19,0.37,0.42,1.1,0.42,2.49V240.08z"/>
</g>
</svg>
