<?xml version="1.0" encoding="utf-8"?>
<!-- Generator: Adobe Illustrator 25.0.0, SVG Export Plug-In . SVG Version: 6.00 Build 0)  -->
<svg width="100" height="100" version="1.1" id="图层_1" xmlns="http://www.w3.org/2000/svg" xmlns:xlink="http://www.w3.org/1999/xlink" x="0px" y="0px"
	 viewBox="0 0 316.89 344.56" style="enable-background:new 0 0 316.89 344.56;" xml:space="preserve">
<style type="text/css">
	.st0{fill:none;}
	.st1{fill:#F6F6F6;}
</style>
<path class="st0" d="M455.02,261.04c0.14-0.26,0.22-0.56,0.22-0.88c0-1.04-0.84-1.88-1.88-1.88c-0.7,0-1.31,0.38-1.63,0.94
	c-0.14,0.26-0.22,0.56-0.22,0.88c0,1.04,0.84,1.88,1.88,1.88C454.09,261.98,454.69,261.6,455.02,261.04z"/>
<g>
	<g>
		<path class="st1" d="M75.83,224.72v-11.08h1.44l11.13,9.37h0.01v-9.37h1.39v11.08h-1.44l-11.13-9.45h-0.01v9.45H75.83z"/>
		<path class="st1" d="M101.63,222.25c0,0.62-0.09,1.11-0.28,1.46c-0.19,0.36-0.47,0.62-0.85,0.78c-0.38,0.16-0.86,0.27-1.45,0.31
			c-0.59,0.05-1.29,0.07-2.1,0.07c-0.93,0-1.72-0.05-2.36-0.14s-1.17-0.29-1.57-0.58c-0.4-0.29-0.69-0.73-0.87-1.31
			c-0.18-0.58-0.27-1.36-0.27-2.33c0-0.94,0.09-1.7,0.26-2.27c0.18-0.57,0.46-1,0.85-1.28c0.39-0.29,0.91-0.48,1.55-0.58
			c0.64-0.1,1.43-0.14,2.36-0.14c1.06,0,1.94,0.07,2.64,0.22c0.7,0.15,1.22,0.43,1.56,0.85c0.34,0.42,0.52,1.03,0.52,1.84v1.78
			h-8.36c0,0.62,0.05,1.11,0.13,1.48c0.08,0.37,0.25,0.65,0.49,0.84c0.25,0.19,0.61,0.31,1.1,0.37c0.49,0.06,1.14,0.09,1.95,0.09
			c0.73,0,1.32-0.01,1.77-0.04c0.45-0.03,0.79-0.09,1.02-0.19c0.23-0.1,0.39-0.25,0.47-0.44c0.08-0.2,0.12-0.46,0.12-0.79H101.63z
			 M96.91,217.41c-0.78,0-1.42,0.03-1.89,0.09c-0.48,0.06-0.84,0.17-1.09,0.34c-0.25,0.17-0.42,0.41-0.51,0.74
			c-0.09,0.33-0.14,0.76-0.14,1.29h7.03v-0.69c0-0.35-0.04-0.63-0.12-0.86c-0.08-0.23-0.23-0.41-0.47-0.54
			c-0.23-0.13-0.57-0.22-1.02-0.28C98.25,217.43,97.66,217.41,96.91,217.41z"/>
		<path class="st1" d="M107.27,224.72c-0.85,0-1.52-0.09-2.03-0.26s-0.88-0.47-1.11-0.91c-0.23-0.44-0.34-1.05-0.34-1.84v-7.58h1.39
			v2.27h5.12v1.14h-5.12v4.17c0,0.54,0.05,0.94,0.15,1.2c0.1,0.26,0.3,0.44,0.6,0.52s0.75,0.12,1.35,0.12
			c0.53,0,0.95-0.02,1.26-0.05c0.31-0.03,0.53-0.12,0.67-0.27c0.14-0.15,0.24-0.39,0.27-0.73c0.04-0.34,0.06-0.81,0.06-1.42h1.23
			c0,0.8-0.05,1.44-0.15,1.92c-0.1,0.48-0.27,0.84-0.53,1.09c-0.25,0.25-0.61,0.41-1.06,0.49
			C108.57,224.68,107.99,224.72,107.27,224.72z"/>
		<path class="st1" d="M122.28,224.72v-9.93h-5.54v-1.15h12.47v1.15h-5.54v9.93H122.28z"/>
		<path class="st1" d="M130.83,224.72v-11.08h1.39v3.87c0.21-0.28,0.46-0.51,0.77-0.7c0.31-0.19,0.71-0.33,1.23-0.42
			c0.51-0.09,1.18-0.14,2.02-0.14c1.09,0,1.94,0.11,2.57,0.32c0.63,0.21,1.07,0.59,1.34,1.13c0.26,0.54,0.4,1.31,0.4,2.31v4.71
			h-1.39v-4.71c0-0.57-0.05-1.02-0.14-1.37c-0.1-0.35-0.26-0.61-0.49-0.79c-0.23-0.18-0.55-0.3-0.96-0.36
			c-0.41-0.06-0.93-0.09-1.56-0.09c-0.96,0-1.72,0.08-2.27,0.24c-0.55,0.16-0.94,0.41-1.16,0.75c-0.23,0.34-0.34,0.78-0.34,1.32
			v5.01H130.83z"/>
		<path class="st1" d="M151.89,222.25c0,0.62-0.09,1.11-0.28,1.46c-0.19,0.36-0.47,0.62-0.85,0.78c-0.38,0.16-0.86,0.27-1.45,0.31
			c-0.59,0.05-1.29,0.07-2.1,0.07c-0.93,0-1.72-0.05-2.36-0.14s-1.17-0.29-1.57-0.58c-0.4-0.29-0.69-0.73-0.87-1.31
			c-0.18-0.58-0.27-1.36-0.27-2.33c0-0.94,0.09-1.7,0.26-2.27c0.18-0.57,0.46-1,0.85-1.28c0.39-0.29,0.91-0.48,1.55-0.58
			c0.64-0.1,1.43-0.14,2.36-0.14c1.06,0,1.94,0.07,2.64,0.22c0.7,0.15,1.22,0.43,1.56,0.85c0.34,0.42,0.52,1.03,0.52,1.84v1.78
			h-8.36c0,0.62,0.05,1.11,0.13,1.48c0.08,0.37,0.25,0.65,0.49,0.84c0.25,0.19,0.61,0.31,1.1,0.37c0.49,0.06,1.14,0.09,1.95,0.09
			c0.73,0,1.32-0.01,1.77-0.04c0.45-0.03,0.79-0.09,1.02-0.19c0.23-0.1,0.39-0.25,0.47-0.44c0.08-0.2,0.12-0.46,0.12-0.79H151.89z
			 M147.17,217.41c-0.78,0-1.42,0.03-1.89,0.09c-0.48,0.06-0.84,0.17-1.09,0.34c-0.25,0.17-0.42,0.41-0.51,0.74
			c-0.09,0.33-0.14,0.76-0.14,1.29h7.03v-0.69c0-0.35-0.04-0.63-0.12-0.86c-0.08-0.23-0.23-0.41-0.47-0.54
			c-0.23-0.13-0.57-0.22-1.02-0.28C148.51,217.43,147.91,217.41,147.17,217.41z"/>
		<path class="st1" d="M158.37,224.72v-11.08h7.42c1.08,0,1.95,0.05,2.62,0.16s1.16,0.28,1.5,0.53s0.57,0.58,0.69,1
			c0.12,0.42,0.18,0.94,0.18,1.57v0.29c0,0.6-0.06,1.1-0.18,1.52c-0.12,0.42-0.36,0.75-0.71,1.01c-0.35,0.26-0.86,0.44-1.52,0.56
			c-0.66,0.12-1.54,0.18-2.62,0.18h-5.99v4.27H158.37z M169.39,216.9c0-0.46-0.04-0.82-0.13-1.1c-0.09-0.27-0.26-0.48-0.52-0.62
			c-0.26-0.14-0.65-0.23-1.16-0.28c-0.51-0.05-1.2-0.07-2.06-0.07h-5.77v4.42h5.77c0.86,0,1.55-0.03,2.06-0.08
			c0.51-0.06,0.9-0.16,1.16-0.3c0.26-0.15,0.43-0.36,0.52-0.63c0.09-0.27,0.13-0.62,0.13-1.05V216.9z"/>
		<path class="st1" d="M177.1,224.88c-0.93,0-1.72-0.05-2.37-0.14c-0.65-0.09-1.17-0.29-1.57-0.58c-0.4-0.29-0.69-0.73-0.87-1.31
			c-0.18-0.58-0.27-1.36-0.27-2.33c0-0.94,0.09-1.7,0.27-2.27c0.18-0.57,0.47-1,0.87-1.28c0.4-0.29,0.92-0.48,1.57-0.58
			c0.65-0.1,1.44-0.14,2.37-0.14c0.93,0,1.72,0.05,2.37,0.14c0.65,0.1,1.17,0.29,1.57,0.58c0.4,0.29,0.69,0.72,0.87,1.28
			c0.18,0.57,0.27,1.32,0.27,2.27c0,0.97-0.09,1.75-0.27,2.33c-0.18,0.58-0.47,1.02-0.87,1.31c-0.4,0.29-0.92,0.48-1.57,0.58
			S178.03,224.88,177.1,224.88z M180.8,220.52c0-0.69-0.03-1.24-0.1-1.65c-0.07-0.41-0.22-0.73-0.46-0.93
			c-0.24-0.21-0.6-0.35-1.1-0.42c-0.5-0.07-1.18-0.11-2.04-0.11c-0.86,0-1.53,0.04-2.03,0.11c-0.5,0.07-0.87,0.21-1.1,0.42
			c-0.24,0.21-0.39,0.52-0.46,0.93c-0.07,0.41-0.1,0.96-0.1,1.65c0,0.71,0.03,1.28,0.1,1.71c0.07,0.43,0.22,0.75,0.46,0.96
			c0.24,0.21,0.6,0.36,1.1,0.43s1.18,0.1,2.03,0.1c0.86,0,1.54-0.03,2.04-0.1c0.5-0.07,0.86-0.21,1.1-0.43
			c0.24-0.21,0.39-0.54,0.46-0.96C180.77,221.8,180.8,221.23,180.8,220.52z"/>
		<path class="st1" d="M183.8,215.02v-1.39h1.39v1.39H183.8z M183.8,224.72v-7.85h1.39v7.85H183.8z"/>
		<path class="st1" d="M187.06,224.72v-8.31h1.39v1.1c0.21-0.28,0.46-0.51,0.77-0.7c0.31-0.19,0.71-0.33,1.23-0.42
			c0.51-0.09,1.18-0.14,2.02-0.14c1.09,0,1.94,0.11,2.57,0.32c0.63,0.21,1.07,0.59,1.34,1.13s0.4,1.31,0.4,2.31v4.71h-1.39v-4.71
			c0-0.57-0.05-1.02-0.14-1.37c-0.1-0.35-0.26-0.61-0.49-0.79c-0.23-0.18-0.55-0.3-0.96-0.36c-0.41-0.06-0.93-0.09-1.56-0.09
			c-0.96,0-1.72,0.08-2.27,0.24c-0.55,0.16-0.94,0.41-1.16,0.75c-0.23,0.34-0.34,0.78-0.34,1.32v5.01H187.06z"/>
		<path class="st1" d="M202.43,224.72c-0.85,0-1.52-0.09-2.03-0.26c-0.51-0.17-0.88-0.47-1.11-0.91c-0.23-0.44-0.34-1.05-0.34-1.84
			v-7.58h1.39v2.27h5.12v1.14h-5.12v4.17c0,0.54,0.05,0.94,0.15,1.2c0.1,0.26,0.3,0.44,0.6,0.52s0.75,0.12,1.35,0.12
			c0.53,0,0.95-0.02,1.26-0.05c0.31-0.03,0.53-0.12,0.67-0.27c0.14-0.15,0.24-0.39,0.27-0.73c0.04-0.34,0.06-0.81,0.06-1.42h1.23
			c0,0.8-0.05,1.44-0.15,1.92c-0.1,0.48-0.27,0.84-0.53,1.09c-0.25,0.25-0.61,0.41-1.06,0.49
			C203.74,224.68,203.15,224.72,202.43,224.72z"/>
		<path class="st1" d="M212.64,224.88c-1.01,0-1.82-0.03-2.44-0.1c-0.61-0.07-1.08-0.19-1.39-0.38c-0.32-0.18-0.53-0.44-0.63-0.78
			c-0.11-0.34-0.16-0.77-0.16-1.31h1.33c0,0.3,0.02,0.55,0.06,0.73c0.04,0.19,0.17,0.33,0.37,0.43c0.2,0.1,0.53,0.17,0.98,0.2
			c0.45,0.04,1.09,0.05,1.92,0.05c0.87,0,1.55-0.02,2.03-0.05s0.83-0.1,1.04-0.2c0.21-0.1,0.34-0.24,0.39-0.43
			c0.05-0.19,0.07-0.44,0.07-0.74c0-0.38-0.03-0.66-0.1-0.84c-0.07-0.19-0.23-0.31-0.48-0.38c-0.25-0.07-0.65-0.1-1.2-0.1l-3.3-0.04
			c-0.85-0.01-1.5-0.08-1.95-0.22c-0.45-0.13-0.75-0.37-0.92-0.71c-0.16-0.34-0.25-0.82-0.25-1.45c0-0.58,0.09-1.03,0.27-1.35
			c0.18-0.32,0.46-0.54,0.85-0.68c0.38-0.13,0.88-0.22,1.5-0.24c0.62-0.03,1.36-0.04,2.23-0.04c1.02,0,1.84,0.03,2.44,0.09
			c0.6,0.06,1.06,0.18,1.36,0.35c0.3,0.17,0.5,0.42,0.59,0.75c0.09,0.33,0.14,0.76,0.14,1.29h-1.33c0-0.31-0.02-0.56-0.06-0.74
			c-0.04-0.18-0.16-0.31-0.35-0.4c-0.19-0.08-0.5-0.14-0.92-0.16c-0.43-0.02-1.02-0.04-1.79-0.04c-0.88,0-1.56,0.01-2.04,0.03
			c-0.49,0.02-0.84,0.06-1.05,0.14c-0.22,0.07-0.35,0.19-0.4,0.34c-0.05,0.16-0.07,0.37-0.07,0.65c0,0.28,0.02,0.5,0.05,0.66
			c0.03,0.16,0.11,0.28,0.25,0.36c0.13,0.08,0.35,0.14,0.66,0.16c0.31,0.03,0.73,0.04,1.28,0.05l2.85,0.03
			c0.86,0.01,1.51,0.08,1.95,0.21c0.44,0.13,0.75,0.38,0.91,0.73c0.16,0.35,0.24,0.86,0.24,1.53c0,0.6-0.09,1.08-0.26,1.42
			c-0.18,0.35-0.46,0.6-0.84,0.77c-0.38,0.17-0.89,0.27-1.52,0.32C214.31,224.86,213.55,224.88,212.64,224.88z"/>
	</g>
	<path class="st1" d="M202.24,157.71c-1.52-1.52-3.99-1.52-5.52,0c-1.23,1.23-1.46,3.07-0.71,4.53l-0.5,1.23l-3.29,3.29
		c-0.37,0.37-0.73,0.54-1.1,0.53c-0.68-0.01-1.52-0.57-2.64-1.77l-13.49-13.49l0,0l-21.31-21.31l5.87-5.87l16.71,16.71l0,0
		l2.93,2.93c0.13,0.14,0.26,0.27,0.39,0.4c1.22,1.22,2.22,1.78,3.22,1.8c0.29,0,0.56-0.04,0.83-0.13c0.47-0.14,0.92-0.42,1.33-0.83
		l3.31-3.31l1.15-0.47c0.92,0.47,1.98,0.55,2.94,0.25c0.61-0.18,1.18-0.5,1.66-0.98c1.52-1.52,1.52-3.99,0-5.52
		c-1.05-1.05-2.56-1.38-3.89-0.98c-0.62,0.17-1.21,0.5-1.7,0.99c-1.23,1.23-1.46,3.07-0.71,4.53l-0.5,1.23l-3.29,3.29
		c-0.26,0.26-0.52,0.42-0.78,0.49c-0.08,0.02-0.17,0.03-0.26,0.03c-0.68-0.01-1.52-0.57-2.64-1.77l-13.49-13.49l0,0l-6.19-6.19
		l3.66-3.66c1.12-1.2,1.96-1.76,2.64-1.77c0.37-0.01,0.73,0.17,1.1,0.53l3.29,3.29l0.5,1.23c-0.75,1.47-0.51,3.31,0.71,4.53
		c1.52,1.52,3.99,1.52,5.52,0c1.52-1.52,1.52-3.99,0-5.52c-1.23-1.23-3.07-1.46-4.54-0.71l-1.21-0.5l-3.31-3.31
		c-0.63-0.63-1.34-0.95-2.1-0.94c-1,0.02-1.99,0.57-3.22,1.8c-0.13,0.13-0.25,0.26-0.39,0.4l-11.92,11.91l0,0l-7.23,7.23l0.01,0.01
		l-6.37,6.37l-3.08-3.08l0,0l-1.97-1.97l21.31-21.31l0,0l13.48-13.48c0.14-0.13,0.27-0.26,0.4-0.39c1.22-1.22,1.78-2.22,1.8-3.22
		c0.01-0.76-0.3-1.46-0.94-2.1l-3.31-3.31l-0.5-1.21c0.76-1.47,0.52-3.31-0.71-4.54c-1.52-1.52-3.99-1.52-5.52,0
		c-1.52,1.52-1.52,3.99,0,5.52c1.23,1.23,3.07,1.46,4.53,0.71l1.23,0.5l3.29,3.29c0.37,0.37,0.54,0.73,0.53,1.1
		c-0.01,0.68-0.57,1.52-1.77,2.64l-13.49,13.49l0,0l-21.31,21.31l-5.87-5.87l16.71-16.71l0,0l2.93-2.93
		c0.14-0.13,0.27-0.26,0.4-0.39c1.22-1.22,1.78-2.22,1.8-3.22c0-0.29-0.04-0.56-0.13-0.83c-0.14-0.47-0.42-0.92-0.83-1.33
		l-3.31-3.31l-0.47-1.15c0.47-0.92,0.55-1.98,0.25-2.94c-0.18-0.61-0.5-1.18-0.98-1.66c-1.52-1.52-3.99-1.52-5.52,0
		c-1.05,1.05-1.38,2.56-0.98,3.89c0.17,0.62,0.5,1.21,0.99,1.7c1.23,1.23,3.07,1.46,4.53,0.71l1.23,0.5l3.29,3.29
		c0.26,0.26,0.42,0.52,0.49,0.78c0.02,0.08,0.03,0.17,0.03,0.26c-0.01,0.68-0.57,1.52-1.77,2.64l-13.49,13.49l0,0l-6.19,6.19
		l-3.66-3.66c-1.2-1.12-1.76-1.96-1.77-2.64c-0.01-0.37,0.17-0.73,0.53-1.1l3.29-3.29l1.23-0.5c1.47,0.75,3.31,0.51,4.53-0.71
		c1.52-1.52,1.52-3.99,0-5.52c-1.52-1.52-3.99-1.52-5.52,0c-1.23,1.23-1.46,3.07-0.71,4.54l-0.5,1.21l-3.31,3.31
		c-0.63,0.63-0.95,1.34-0.94,2.1c0.02,1,0.57,1.99,1.8,3.22c0.13,0.13,0.26,0.25,0.4,0.39l11.91,11.92l0,0l7.23,7.23l0,0l6.37,6.37
		l-3.06,3.06l0,0l-1.97,1.97l-21.31-21.31l0,0l-13.48-13.48c-0.13-0.14-0.26-0.27-0.39-0.4c-1.22-1.22-2.22-1.78-3.22-1.8
		c-0.76-0.01-1.46,0.3-2.1,0.94l-3.31,3.31l-1.21,0.5c-1.47-0.76-3.31-0.52-4.54,0.71c-1.52,1.52-1.52,3.99,0,5.52
		c1.52,1.52,3.99,1.52,5.52,0c1.23-1.23,1.46-3.07,0.71-4.53l0.5-1.23l3.29-3.29c0.37-0.37,0.73-0.54,1.1-0.53
		c0.68,0.01,1.52,0.57,2.64,1.77l13.49,13.49l0,0l21.31,21.31l-5.87,5.87l-16.71-16.71l0,0l-2.93-2.93
		c-0.13-0.14-0.26-0.27-0.39-0.4c-1.22-1.22-2.22-1.78-3.22-1.8c-0.29,0-0.56,0.04-0.83,0.13c-0.47,0.14-0.92,0.42-1.33,0.83
		l-3.31,3.31l-1.15,0.47c-0.92-0.47-1.98-0.55-2.94-0.25c-0.61,0.18-1.18,0.5-1.66,0.98c-1.52,1.52-1.52,3.99,0,5.52
		c1.05,1.05,2.56,1.38,3.89,0.98c0.62-0.17,1.21-0.5,1.7-0.99c1.23-1.23,1.46-3.07,0.71-4.53l0.5-1.23l3.29-3.29
		c0.26-0.26,0.52-0.42,0.78-0.49c0.08-0.02,0.17-0.03,0.26-0.03c0.68,0.01,1.52,0.57,2.64,1.77l13.49,13.49l0,0l6.19,6.19
		l-3.66,3.66c-1.12,1.2-1.96,1.76-2.64,1.77c-0.37,0.01-0.73-0.17-1.1-0.53l-3.29-3.29l-0.5-1.23c0.75-1.47,0.51-3.31-0.71-4.53
		c-1.52-1.52-3.99-1.52-5.52,0c-1.52,1.52-1.52,3.99,0,5.52c1.23,1.23,3.07,1.46,4.54,0.71l1.21,0.5l3.31,3.31
		c0.63,0.63,1.34,0.95,2.1,0.94c1-0.02,1.99-0.57,3.22-1.8c0.13-0.13,0.25-0.26,0.39-0.4l11.92-11.91l0,0l7.23-7.23l-0.01-0.01
		l6.37-6.37l3.08,3.08l0,0l1.97,1.97L139.4,173l0,0l-13.48,13.48c-0.14,0.13-0.27,0.26-0.4,0.39c-1.22,1.22-1.78,2.22-1.8,3.22
		c-0.01,0.76,0.3,1.46,0.94,2.1l3.31,3.31l0.5,1.21c-0.76,1.47-0.52,3.31,0.71,4.54c1.52,1.52,3.99,1.52,5.52,0
		c1.52-1.52,1.52-3.99,0-5.52c-1.23-1.23-3.07-1.46-4.53-0.71l-1.23-0.5l-3.29-3.29c-0.37-0.37-0.54-0.73-0.53-1.1
		c0.01-0.68,0.57-1.52,1.77-2.64l13.49-13.49l0,0l21.31-21.31l5.87,5.87l-16.71,16.71l0,0l-2.93,2.93c-0.14,0.13-0.27,0.26-0.4,0.39
		c-1.22,1.22-1.78,2.22-1.8,3.22c0,0.29,0.04,0.56,0.13,0.83c0.14,0.47,0.42,0.92,0.83,1.33l3.31,3.31l0.47,1.15
		c-0.47,0.92-0.55,1.98-0.25,2.94c0.18,0.61,0.5,1.18,0.98,1.66c1.52,1.52,3.99,1.52,5.52,0c1.05-1.05,1.38-2.56,0.98-3.89
		c-0.17-0.62-0.5-1.21-0.99-1.7c-1.23-1.23-3.07-1.46-4.53-0.71l-1.23-0.5l-3.29-3.29c-0.26-0.26-0.42-0.52-0.49-0.78
		c-0.02-0.08-0.03-0.17-0.03-0.26c0.01-0.68,0.57-1.52,1.77-2.64l13.49-13.49l0,0l6.19-6.19l3.66,3.66c1.2,1.12,1.76,1.96,1.77,2.64
		c0.01,0.37-0.17,0.73-0.53,1.1l-3.29,3.29l-1.23,0.5c-1.47-0.75-3.31-0.51-4.53,0.71c-1.52,1.52-1.52,3.99,0,5.52
		c1.52,1.52,3.99,1.52,5.52,0c1.23-1.23,1.46-3.07,0.71-4.54l0.5-1.21l3.31-3.31c0.63-0.63,0.95-1.34,0.94-2.1
		c-0.02-1-0.57-1.99-1.8-3.22c-0.13-0.13-0.26-0.25-0.4-0.39l-11.91-11.92l0,0l-7.23-7.23l0,0l-6.37-6.37l3.06-3.06l0,0l1.97-1.97
		L174.02,153l0,0l13.48,13.48c0.13,0.14,0.26,0.27,0.39,0.4c1.22,1.22,2.22,1.78,3.22,1.8c0.76,0.01,1.46-0.3,2.1-0.94l3.31-3.31
		l1.21-0.5c1.47,0.76,3.31,0.52,4.54-0.71C203.77,161.7,203.77,159.23,202.24,157.71z M189.88,137.07c0.23-0.23,0.51-0.39,0.81-0.48
		c0.65-0.17,1.37-0.01,1.88,0.5c0.76,0.76,0.76,2,0,2.76c-0.23,0.23-0.51,0.39-0.81,0.48c-0.65,0.17-1.37,0.01-1.88-0.5
		C189.12,139.07,189.12,137.83,189.88,137.07z M173.86,123.84c0.76-0.76,2-0.76,2.76,0c0.76,0.76,0.76,2,0,2.76
		c-0.76,0.76-2,0.76-2.76,0C173.09,125.84,173.09,124.6,173.86,123.84z M162.84,94.27c-0.76,0.76-2,0.76-2.76,0
		c-0.76-0.76-0.76-2,0-2.76c0.76-0.76,2-0.76,2.76,0C163.6,92.27,163.6,93.51,162.84,94.27z M140.83,102.5c-0.76,0.76-2,0.76-2.76,0
		c-0.23-0.23-0.39-0.51-0.48-0.81c-0.17-0.65-0.01-1.37,0.5-1.88c0.76-0.76,2-0.76,2.76,0c0.23,0.23,0.39,0.51,0.48,0.81
		C141.5,101.27,141.34,101.99,140.83,102.5z M124.84,115.76c0.76-0.76,2-0.76,2.76,0c0.76,0.76,0.76,2,0,2.76
		c-0.76,0.76-2,0.76-2.76,0C124.08,117.76,124.08,116.52,124.84,115.76z M95.29,132.28c-0.76,0.76-2,0.76-2.76,0
		c-0.76-0.76-0.76-2,0-2.76c0.76-0.76,2-0.76,2.76,0C96.05,130.28,96.05,131.52,95.29,132.28z M103.52,154.29
		c-0.23,0.23-0.51,0.39-0.81,0.48c-0.65,0.17-1.37,0.01-1.88-0.5c-0.76-0.76-0.76-2,0-2.76c0.23-0.23,0.51-0.39,0.81-0.48
		c0.65-0.17,1.37-0.01,1.88,0.5C104.28,152.3,104.28,153.53,103.52,154.29z M119.54,167.52c-0.76,0.76-2,0.76-2.76,0
		c-0.76-0.76-0.76-2,0-2.76c0.76-0.76,2-0.76,2.76,0C120.3,165.53,120.3,166.76,119.54,167.52z M130.56,197.1
		c0.76-0.76,2-0.76,2.76,0c0.76,0.76,0.76,2,0,2.76c-0.76,0.76-2,0.76-2.76,0C129.8,199.09,129.8,197.86,130.56,197.1z
		 M152.57,188.86c0.76-0.76,2-0.76,2.76,0c0.23,0.23,0.39,0.51,0.48,0.81c0.17,0.65,0.01,1.37-0.5,1.88c-0.76,0.76-2,0.76-2.76,0
		c-0.23-0.23-0.39-0.51-0.48-0.81C151.89,190.1,152.06,189.38,152.57,188.86z M168.56,175.6c-0.76,0.76-2,0.76-2.76,0
		c-0.76-0.76-0.76-2,0-2.76c0.76-0.76,2-0.76,2.76,0C169.32,173.61,169.32,174.84,168.56,175.6z M149.27,143.1l0.02,0.02
		c1.42,1.42,1.42,3.73,0,5.16l0,0c-1.42,1.42-3.73,1.42-5.16,0l-0.02-0.02c-1.42-1.42-1.42-3.73,0-5.16h0
		C145.54,141.67,147.84,141.67,149.27,143.1z M200.87,161.84c-0.76,0.76-2,0.76-2.76,0c-0.76-0.76-0.76-2,0-2.76
		c0.76-0.76,2-0.76,2.76,0C201.63,159.85,201.63,161.08,200.87,161.84z"/>
</g>
</svg>
