<?xml version="1.0" encoding="utf-8"?>
<!-- Generator: Adobe Illustrator 25.0.0, SVG Export Plug-In . SVG Version: 6.00 Build 0)  -->
<svg version="1.1" id="图层_1" xmlns="http://www.w3.org/2000/svg" xmlns:xlink="http://www.w3.org/1999/xlink" x="0px" y="0px"
	 viewBox="0 0 316.89 344.56" style="enable-background:new 0 0 316.89 344.56;" xml:space="preserve">
<style type="text/css">
	.st0{fill:none;}
</style>
<path class="st0" d="M455.02,261.04c0.14-0.26,0.22-0.56,0.22-0.88c0-1.04-0.84-1.88-1.88-1.88c-0.7,0-1.31,0.38-1.63,0.94
	c-0.14,0.26-0.22,0.56-0.22,0.88c0,1.04,0.84,1.88,1.88,1.88C454.09,261.98,454.69,261.6,455.02,261.04z"/>
<g>
	<path d="M202.24,157.71c-1.52-1.52-3.99-1.52-5.52,0c-1.23,1.23-1.46,3.07-0.71,4.53l-0.5,1.23l-3.29,3.29
		c-0.37,0.37-0.73,0.54-1.1,0.53c-0.68-0.01-1.52-0.57-2.64-1.77l-13.49-13.49l0,0l-21.31-21.31l5.87-5.87l16.71,16.71l0,0
		l2.93,2.93c0.13,0.14,0.26,0.27,0.39,0.4c1.22,1.22,2.22,1.78,3.22,1.8c0.29,0,0.56-0.04,0.83-0.13c0.47-0.14,0.92-0.42,1.33-0.83
		l3.31-3.31l1.15-0.47c0.92,0.47,1.98,0.55,2.94,0.25c0.61-0.18,1.18-0.5,1.66-0.98c1.52-1.52,1.52-3.99,0-5.52
		c-1.05-1.05-2.56-1.38-3.89-0.98c-0.62,0.17-1.21,0.5-1.7,0.99c-1.23,1.23-1.46,3.07-0.71,4.53l-0.5,1.23l-3.29,3.29
		c-0.26,0.26-0.52,0.42-0.78,0.49c-0.08,0.02-0.17,0.03-0.26,0.03c-0.68-0.01-1.52-0.57-2.64-1.77l-13.49-13.49l0,0l-6.19-6.19
		l3.66-3.66c1.12-1.2,1.96-1.76,2.64-1.77c0.37-0.01,0.73,0.17,1.1,0.53l3.29,3.29l0.5,1.23c-0.75,1.47-0.51,3.31,0.71,4.53
		c1.52,1.52,3.99,1.52,5.52,0c1.52-1.52,1.52-3.99,0-5.52c-1.23-1.23-3.07-1.46-4.54-0.71l-1.21-0.5l-3.31-3.31
		c-0.63-0.63-1.34-0.95-2.1-0.94c-1,0.02-1.99,0.57-3.22,1.8c-0.13,0.13-0.25,0.26-0.39,0.4l-11.92,11.91l0,0l-7.23,7.23l0.01,0.01
		l-6.37,6.37l-3.08-3.08l0,0l-1.97-1.97l21.31-21.31l0,0l13.48-13.48c0.14-0.13,0.27-0.26,0.4-0.39c1.22-1.22,1.78-2.22,1.8-3.22
		c0.01-0.76-0.3-1.46-0.94-2.1l-3.31-3.31l-0.5-1.21c0.76-1.47,0.52-3.31-0.71-4.54c-1.52-1.52-3.99-1.52-5.52,0
		c-1.52,1.52-1.52,3.99,0,5.52c1.23,1.23,3.07,1.46,4.53,0.71l1.23,0.5l3.29,3.29c0.37,0.37,0.54,0.73,0.53,1.1
		c-0.01,0.68-0.57,1.52-1.77,2.64l-13.49,13.49l0,0l-21.31,21.31l-5.87-5.87l16.71-16.71l0,0l2.93-2.93
		c0.14-0.13,0.27-0.26,0.4-0.39c1.22-1.22,1.78-2.22,1.8-3.22c0-0.29-0.04-0.56-0.13-0.83c-0.14-0.47-0.42-0.92-0.83-1.33
		l-3.31-3.31l-0.47-1.15c0.47-0.92,0.55-1.98,0.25-2.94c-0.18-0.61-0.5-1.18-0.98-1.66c-1.52-1.52-3.99-1.52-5.52,0
		c-1.05,1.05-1.38,2.56-0.98,3.89c0.17,0.62,0.5,1.21,0.99,1.7c1.23,1.23,3.07,1.46,4.53,0.71l1.23,0.5l3.29,3.29
		c0.26,0.26,0.42,0.52,0.49,0.78c0.02,0.08,0.03,0.17,0.03,0.26c-0.01,0.68-0.57,1.52-1.77,2.64l-13.49,13.49l0,0l-6.19,6.19
		l-3.66-3.66c-1.2-1.12-1.76-1.96-1.77-2.64c-0.01-0.37,0.17-0.73,0.53-1.1l3.29-3.29l1.23-0.5c1.47,0.75,3.31,0.51,4.53-0.71
		c1.52-1.52,1.52-3.99,0-5.52c-1.52-1.52-3.99-1.52-5.52,0c-1.23,1.23-1.46,3.07-0.71,4.54l-0.5,1.21l-3.31,3.31
		c-0.63,0.63-0.95,1.34-0.94,2.1c0.02,1,0.57,1.99,1.8,3.22c0.13,0.13,0.26,0.25,0.4,0.39l11.91,11.92l0,0l7.23,7.23l0,0l6.37,6.37
		l-3.06,3.06l0,0l-1.97,1.97l-21.31-21.31l0,0l-13.48-13.48c-0.13-0.14-0.26-0.27-0.39-0.4c-1.22-1.22-2.22-1.78-3.22-1.8
		c-0.76-0.01-1.46,0.3-2.1,0.94l-3.31,3.31l-1.21,0.5c-1.47-0.76-3.31-0.52-4.54,0.71c-1.52,1.52-1.52,3.99,0,5.52
		c1.52,1.52,3.99,1.52,5.52,0c1.23-1.23,1.46-3.07,0.71-4.53l0.5-1.23l3.29-3.29c0.37-0.37,0.73-0.54,1.1-0.53
		c0.68,0.01,1.52,0.57,2.64,1.77l13.49,13.49l0,0l21.31,21.31l-5.87,5.87l-16.71-16.71l0,0l-2.93-2.93
		c-0.13-0.14-0.26-0.27-0.39-0.4c-1.22-1.22-2.22-1.78-3.22-1.8c-0.29,0-0.56,0.04-0.83,0.13c-0.47,0.14-0.92,0.42-1.33,0.83
		l-3.31,3.31l-1.15,0.47c-0.92-0.47-1.98-0.55-2.94-0.25c-0.61,0.18-1.18,0.5-1.66,0.98c-1.52,1.52-1.52,3.99,0,5.52
		c1.05,1.05,2.56,1.38,3.89,0.98c0.62-0.17,1.21-0.5,1.7-0.99c1.23-1.23,1.46-3.07,0.71-4.53l0.5-1.23l3.29-3.29
		c0.26-0.26,0.52-0.42,0.78-0.49c0.08-0.02,0.17-0.03,0.26-0.03c0.68,0.01,1.52,0.57,2.64,1.77l13.49,13.49l0,0l6.19,6.19
		l-3.66,3.66c-1.12,1.2-1.96,1.76-2.64,1.77c-0.37,0.01-0.73-0.17-1.1-0.53l-3.29-3.29l-0.5-1.23c0.75-1.47,0.51-3.31-0.71-4.53
		c-1.52-1.52-3.99-1.52-5.52,0c-1.52,1.52-1.52,3.99,0,5.52c1.23,1.23,3.07,1.46,4.54,0.71l1.21,0.5l3.31,3.31
		c0.63,0.63,1.34,0.95,2.1,0.94c1-0.02,1.99-0.57,3.22-1.8c0.13-0.13,0.25-0.26,0.39-0.4l11.92-11.91l0,0l7.23-7.23l-0.01-0.01
		l6.37-6.37l3.08,3.08l0,0l1.97,1.97L139.4,173l0,0l-13.48,13.48c-0.14,0.13-0.27,0.26-0.4,0.39c-1.22,1.22-1.78,2.22-1.8,3.22
		c-0.01,0.76,0.3,1.46,0.94,2.1l3.31,3.31l0.5,1.21c-0.76,1.47-0.52,3.31,0.71,4.54c1.52,1.52,3.99,1.52,5.52,0
		c1.52-1.52,1.52-3.99,0-5.52c-1.23-1.23-3.07-1.46-4.53-0.71l-1.23-0.5l-3.29-3.29c-0.37-0.37-0.54-0.73-0.53-1.1
		c0.01-0.68,0.57-1.52,1.77-2.64l13.49-13.49l0,0l21.31-21.31l5.87,5.87l-16.71,16.71l0,0l-2.93,2.93c-0.14,0.13-0.27,0.26-0.4,0.39
		c-1.22,1.22-1.78,2.22-1.8,3.22c0,0.29,0.04,0.56,0.13,0.83c0.14,0.47,0.42,0.92,0.83,1.33l3.31,3.31l0.47,1.15
		c-0.47,0.92-0.55,1.98-0.25,2.94c0.18,0.61,0.5,1.18,0.98,1.66c1.52,1.52,3.99,1.52,5.52,0c1.05-1.05,1.38-2.56,0.98-3.89
		c-0.17-0.62-0.5-1.21-0.99-1.7c-1.23-1.23-3.07-1.46-4.53-0.71l-1.23-0.5l-3.29-3.29c-0.26-0.26-0.42-0.52-0.49-0.78
		c-0.02-0.08-0.03-0.17-0.03-0.26c0.01-0.68,0.57-1.52,1.77-2.64l13.49-13.49l0,0l6.19-6.19l3.66,3.66c1.2,1.12,1.76,1.96,1.77,2.64
		c0.01,0.37-0.17,0.73-0.53,1.1l-3.29,3.29l-1.23,0.5c-1.47-0.75-3.31-0.51-4.53,0.71c-1.52,1.52-1.52,3.99,0,5.52
		c1.52,1.52,3.99,1.52,5.52,0c1.23-1.23,1.46-3.07,0.71-4.54l0.5-1.21l3.31-3.31c0.63-0.63,0.95-1.34,0.94-2.1
		c-0.02-1-0.57-1.99-1.8-3.22c-0.13-0.13-0.26-0.25-0.4-0.39l-11.91-11.92l0,0l-7.23-7.23l0,0l-6.37-6.37l3.06-3.06l0,0l1.97-1.97
		L174.02,153l0,0l13.48,13.48c0.13,0.14,0.26,0.27,0.39,0.4c1.22,1.22,2.22,1.78,3.22,1.8c0.76,0.01,1.46-0.3,2.1-0.94l3.31-3.31
		l1.21-0.5c1.47,0.76,3.31,0.52,4.54-0.71C203.77,161.7,203.77,159.23,202.24,157.71z M189.88,137.07c0.23-0.23,0.51-0.39,0.81-0.48
		c0.65-0.17,1.37-0.01,1.88,0.5c0.76,0.76,0.76,2,0,2.76c-0.23,0.23-0.51,0.39-0.81,0.48c-0.65,0.17-1.37,0.01-1.88-0.5
		C189.12,139.07,189.12,137.83,189.88,137.07z M173.86,123.84c0.76-0.76,2-0.76,2.76,0c0.76,0.76,0.76,2,0,2.76
		c-0.76,0.76-2,0.76-2.76,0C173.09,125.84,173.09,124.6,173.86,123.84z M162.84,94.27c-0.76,0.76-2,0.76-2.76,0
		c-0.76-0.76-0.76-2,0-2.76c0.76-0.76,2-0.76,2.76,0C163.6,92.27,163.6,93.51,162.84,94.27z M140.83,102.5c-0.76,0.76-2,0.76-2.76,0
		c-0.23-0.23-0.39-0.51-0.48-0.81c-0.17-0.65-0.01-1.37,0.5-1.88c0.76-0.76,2-0.76,2.76,0c0.23,0.23,0.39,0.51,0.48,0.81
		C141.5,101.27,141.34,101.99,140.83,102.5z M124.84,115.76c0.76-0.76,2-0.76,2.76,0c0.76,0.76,0.76,2,0,2.76
		c-0.76,0.76-2,0.76-2.76,0C124.08,117.76,124.08,116.52,124.84,115.76z M95.29,132.28c-0.76,0.76-2,0.76-2.76,0
		c-0.76-0.76-0.76-2,0-2.76c0.76-0.76,2-0.76,2.76,0C96.05,130.28,96.05,131.52,95.29,132.28z M103.52,154.29
		c-0.23,0.23-0.51,0.39-0.81,0.48c-0.65,0.17-1.37,0.01-1.88-0.5c-0.76-0.76-0.76-2,0-2.76c0.23-0.23,0.51-0.39,0.81-0.48
		c0.65-0.17,1.37-0.01,1.88,0.5C104.28,152.3,104.28,153.53,103.52,154.29z M119.54,167.52c-0.76,0.76-2,0.76-2.76,0
		c-0.76-0.76-0.76-2,0-2.76c0.76-0.76,2-0.76,2.76,0C120.3,165.53,120.3,166.76,119.54,167.52z M130.56,197.1
		c0.76-0.76,2-0.76,2.76,0c0.76,0.76,0.76,2,0,2.76c-0.76,0.76-2,0.76-2.76,0C129.8,199.09,129.8,197.86,130.56,197.1z
		 M152.57,188.86c0.76-0.76,2-0.76,2.76,0c0.23,0.23,0.39,0.51,0.48,0.81c0.17,0.65,0.01,1.37-0.5,1.88c-0.76,0.76-2,0.76-2.76,0
		c-0.23-0.23-0.39-0.51-0.48-0.81C151.89,190.1,152.06,189.38,152.57,188.86z M168.56,175.6c-0.76,0.76-2,0.76-2.76,0
		c-0.76-0.76-0.76-2,0-2.76c0.76-0.76,2-0.76,2.76,0C169.32,173.61,169.32,174.84,168.56,175.6z M149.27,143.1l0.02,0.02
		c1.42,1.42,1.42,3.73,0,5.16l0,0c-1.42,1.42-3.73,1.42-5.16,0l-0.02-0.02c-1.42-1.42-1.42-3.73,0-5.16h0
		C145.54,141.67,147.84,141.67,149.27,143.1z M200.87,161.84c-0.76,0.76-2,0.76-2.76,0c-0.76-0.76-0.76-2,0-2.76
		c0.76-0.76,2-0.76,2.76,0C201.63,159.85,201.63,161.08,200.87,161.84z"/>
</g>
</svg>
