<?xml version="1.0" encoding="utf-8"?>
<!-- Generator: Adobe Illustrator 28.0.0, SVG Export Plug-In . SVG Version: 6.00 Build 0)  -->
<svg width="80" height="30" version="1.1" id="图层_1" xmlns="http://www.w3.org/2000/svg" xmlns:xlink="http://www.w3.org/1999/xlink" x="0px" y="0px"
	 viewBox="0 0 80 30" style="enable-background:new 0 0 80 30;" xml:space="preserve">
<g>
	<path d="M15.73,11.03l12.08,7.64h9.46L15.43,4.97c-0.27-0.17-0.57-0.26-0.87-0.26h-2.27c-1.05,0-1.91,1.05-1.91,2.33v11.63h5.35
		V11.03z"/>
	<rect x="10.38" y="19.92" width="5.35" height="1.66"/>
	<path d="M39.06,24.5c0.27,0.14,0.57,0.21,0.88,0.21h2.27c1.04,0,1.89-0.84,1.9-1.88h-8.26L39.06,24.5z"/>
	<path d="M12.29,24.71h1.54c1.04,0,1.89-0.84,1.9-1.88h-5.35C10.4,23.87,11.24,24.71,12.29,24.71z"/>
	<polygon points="33.43,21.58 44.11,21.58 44.11,19.92 30.22,19.92 	"/>
	<path d="M68.29,7.72c-0.39-0.83-1.1-1.47-2.12-1.92c-0.89-0.39-2.11-0.66-3.73-0.82c-1.52-0.15-3.54-0.22-6-0.22h-1.49
		c-0.1-0.02-0.21-0.03-0.31-0.03H28.11c-1.05,0-1.91,0.86-1.91,1.91s0.86,1.91,1.91,1.91H38.6v10.14h5.51v-2.33h12.23
		c2.46,0,4.49-0.08,6.02-0.25c1.63-0.18,2.86-0.46,3.76-0.86c1.03-0.46,1.76-1.1,2.15-1.92c0.35-0.72,0.53-1.59,0.53-2.57v-0.4
		C68.8,9.33,68.63,8.44,68.29,7.72z M63.45,10.74c0,0.5-0.09,0.78-0.17,0.93c-0.04,0.08-0.21,0.21-0.55,0.32
		c-0.34,0.12-1.01,0.27-2.33,0.36c-1.13,0.07-2.67,0.11-4.58,0.11H44.11V9.15c0-0.16-0.03-0.32-0.06-0.46V8.62h11.79
		c1.91,0,3.46,0.03,4.59,0.09c1.32,0.07,1.99,0.22,2.33,0.33c0.33,0.11,0.49,0.23,0.53,0.31c0.08,0.15,0.17,0.44,0.17,0.99V10.74z"
		/>
</g>
</svg>
